<svg width="300" height="102" viewBox="0 0 300 102" fill="none" xmlns="http://www.w3.org/2000/svg">
<path d="M145.687 2.32899C186.913 -1.21092 224.703 1.05352 252.468 7.56325C266.354 10.8188 277.704 15.13 285.72 20.2865C293.744 25.4476 298.349 31.4021 298.931 37.9299C299.513 44.4575 296.031 51.1058 289.043 57.5557C282.061 64.0001 271.646 70.1802 258.547 75.7528C232.355 86.8958 195.539 95.5664 154.314 99.1064C113.088 102.646 75.2972 100.382 47.5314 93.8722C33.6459 90.6167 22.2955 86.3055 14.2794 81.149C6.25644 75.988 1.65106 70.0341 1.06901 63.5065C0.48712 56.9788 3.96906 50.3298 10.9572 43.8797C17.9392 37.4354 28.3543 31.2552 41.453 25.6826C67.6452 14.5396 104.461 5.86895 145.687 2.32899Z" stroke="white"/>
</svg>
