<svg width="300" height="99" viewBox="0 0 300 99" fill="none" xmlns="http://www.w3.org/2000/svg">
<path d="M150 1.14429C191.383 1.14429 228.828 6.63289 255.91 15.4929C269.454 19.9238 280.378 25.1889 287.906 31.0115C295.441 36.8393 299.5 43.1649 299.5 49.7175C299.5 56.2702 295.441 62.5957 287.906 68.4236C280.378 74.2462 269.454 79.5122 255.91 83.9431C228.828 92.8031 191.383 98.2917 150 98.2917C108.617 98.2917 71.1719 92.8031 44.0898 83.9431C30.5461 79.5122 19.6216 74.2462 12.0938 68.4236C4.55927 62.5957 0.5 56.2702 0.5 49.7175C0.500102 43.1649 4.5593 36.8393 12.0938 31.0115C19.6216 25.1889 30.5462 19.9238 44.0898 15.4929C71.1719 6.63289 108.617 1.14429 150 1.14429Z" stroke="white"/>
</svg>
