<svg width="300" height="102" viewBox="0 0 300 102" fill="none" xmlns="http://www.w3.org/2000/svg">
<path d="M145.687 2.32911C186.913 -1.2108 224.703 1.05365 252.468 7.56337C266.354 10.8189 277.704 15.1301 285.72 20.2866C293.744 25.4477 298.349 31.4022 298.931 37.93C299.513 44.4576 296.031 51.1059 289.043 57.5558C282.061 64.0002 271.646 70.1804 258.547 75.753C232.355 86.8959 195.539 95.5665 154.314 99.1065C113.088 102.646 75.2972 100.382 47.5314 93.8723C33.6459 90.6168 22.2955 86.3056 14.2794 81.1491C6.25644 75.9881 1.65106 70.0342 1.06901 63.5067C0.48712 56.9789 3.96906 50.3299 10.9572 43.8799C17.9392 37.4355 28.3543 31.2553 41.453 25.6827C67.6452 14.5398 104.461 5.86907 145.687 2.32911Z" stroke="#800020"/>
</svg>
