<svg width="135" height="115" viewBox="0 0 135 115" fill="none" xmlns="http://www.w3.org/2000/svg">
<path d="M-4.75164 27.6771C-4.75164 27.6771 42.6932 4.04602 44.748 4.04602C46.8029 4.04602 87.3874 19.2011 87.3874 19.2011C87.3874 19.2011 107.166 23.8247 107.679 24.5952C108.192 25.3657 107.679 31.2736 107.679 31.2736L113.844 33.8424L130.796 59.0857C130.796 59.0857 125.402 62.0978 118.724 54.9055C112.046 47.7131 106.394 40.7781 106.394 40.7781C106.394 40.7781 79.937 30.943 78.91 31.8792C77.8822 32.8153 60.2027 43.0162 59.4322 45.0711C58.6618 47.1259 61.1036 78.0234 47.7883 80.0783L48.857 57.2176C48.857 57.2176 38.0689 44.6312 44.49 30.2473L-4.75305 67.7492V27.6771H-4.75164Z" stroke="white" stroke-width="0.5" stroke-miterlimit="10" stroke-linecap="round" stroke-linejoin="round"/>
<path d="M107.68 31.2737L97.4366 28.3328" stroke="white" stroke-width="0.5" stroke-miterlimit="10" stroke-linecap="round" stroke-linejoin="round"/>
<path d="M44.4913 30.2458C44.4913 30.2458 45.5438 26.4999 48.293 24.2089" stroke="white" stroke-width="0.5" stroke-miterlimit="10" stroke-linecap="round" stroke-linejoin="round"/>
<path d="M132.484 60.9982C132.292 60.9824 132.052 60.9582 131.779 60.9103C131.047 60.7815 130.083 60.5077 129.146 59.9288C128.212 59.3515 127.301 58.4694 126.67 57.1154C126.097 55.885 125.75 54.2528 125.838 52.087L132.484 60.9982Z" stroke="white" stroke-width="0.5"/>
<path d="M48.5707 68.6948C50.9662 72.1657 50.7622 75.7535 49.9125 78.5415C49.4642 80.0124 48.8372 81.2562 48.3217 82.1323C48.1678 82.3938 48.0227 82.6214 47.8969 82.813L48.5707 68.6948Z" stroke="white" stroke-width="0.5"/>
<path d="M11.5363 55.2697C11.8091 58.5201 11.5772 60.606 10.7687 60.8224C9.03527 61.2855 5.31116 52.9872 2.44988 42.2872C-0.411398 31.5871 -1.32567 22.5373 0.407731 22.0735C0.95475 21.9269 1.70056 22.6544 2.55422 24.0536" stroke="white" stroke-width="0.5" stroke-miterlimit="10" stroke-linecap="round" stroke-linejoin="round"/>
<path d="M22.2434 33.7501L22.2649 33.9591L22.2297 33.9171L22.219 33.9288L22.2375 33.7482L22.2395 33.7198L22.2434 33.7501Z" stroke="white" stroke-width="0.5"/>
<path d="M80.5299 43.6542L80.5514 43.8632L80.5162 43.8212L80.5045 43.8339L80.5231 43.6522L80.526 43.619L80.5299 43.6542Z" stroke="white" stroke-width="0.5"/>
<path d="M107.679 24.2351L107.7 24.4441L107.665 24.4021L107.654 24.4138L107.673 24.2332L107.675 24.2048L107.679 24.2351Z" stroke="white" stroke-width="0.5"/>
<path d="M45.0244 3.49414L45.0459 3.70312L45.0107 3.66113L45 3.67285L45.0186 3.49219L45.0205 3.46387L45.0244 3.49414Z" stroke="white" stroke-width="0.5"/>
<path d="M4.48157 48.3286L4.50305 48.5376L4.4679 48.4956L4.45715 48.5073L4.47571 48.3267L4.47766 48.2983L4.48157 48.3286Z" stroke="white" stroke-width="0.5"/>
<path d="M36.826 36.084C39.2157 38.1127 40.4599 39.6657 40.0658 40.348C39.1692 41.9017 30.118 38.3559 19.8508 32.4275C9.5836 26.4991 1.98735 20.4347 2.88401 18.881C3.35984 18.057 6.12807 18.6674 10.1546 20.3064" stroke="white" stroke-width="0.5" stroke-miterlimit="10" stroke-linecap="round" stroke-linejoin="round"/>
<path d="M118.626 40.9606C119.308 40.1668 119.924 39.7756 120.35 39.9504C121.331 40.3522 120.93 43.6019 119.454 47.209C117.977 50.8161 115.985 53.4144 115.004 53.0133C114.482 52.7997 114.351 51.7783 114.566 50.3262" stroke="white" stroke-width="0.5" stroke-miterlimit="10" stroke-linecap="round" stroke-linejoin="round"/>
<path d="M126.583 59.8871C126.974 60.8747 127.329 61.8862 127.644 62.9204C133.902 83.4555 122.327 105.176 101.792 111.433C81.2566 117.691 59.5365 106.116 53.2789 85.5808C52.5563 83.2094 52.0714 80.8219 51.8105 78.4442" stroke="white" stroke-width="0.5" stroke-miterlimit="10" stroke-linecap="round" stroke-linejoin="round"/>
<path d="M59.1538 51.2103C63.9431 44.6918 70.7998 39.6072 79.132 37.0688C82.9823 35.8958 86.8742 35.3495 90.6984 35.3714" stroke="white" stroke-width="0.5" stroke-miterlimit="10" stroke-linecap="round" stroke-linejoin="round"/>
<path d="M59.2863 79.9984C56.3814 64.3492 65.637 48.678 81.2228 43.929C97.969 38.826 115.682 48.2649 120.784 65.0111C121.374 66.9461 121.769 68.8938 121.982 70.8337" stroke="white" stroke-width="0.5" stroke-miterlimit="10" stroke-linecap="round" stroke-linejoin="round"/>
<path d="M63.0803 82.5947C58.4722 67.472 66.9961 51.4773 82.1181 46.8692C97.2408 42.2611 113.236 50.7851 117.844 65.9071C118.632 68.4934 119.036 71.1052 119.088 73.6809" stroke="white" stroke-width="0.5" stroke-miterlimit="10" stroke-linecap="round" stroke-linejoin="round"/>
<path d="M56.1578 92.5461C58.7992 92.4854 61.2143 91.6663 63.4686 90.2896C64.722 89.5241 65.8562 88.5809 66.9735 87.6278C69.5507 85.4299 72.0771 83.1509 74.237 80.542C76.9002 77.3254 79.0093 73.6062 82.1674 70.8725C86.2461 67.3416 91.8932 65.7774 97.2464 66.4442C101.133 66.9285 105.212 68.8882 106.61 72.5467C106.61 72.5467 107.009 73.669 106.476 73.9897C105.943 74.3097 104.001 70.697 103.161 71.2158C102.32 71.7347 105.113 72.6186 104.588 73.8297C104.064 75.0407 101.57 70.6498 100.453 70.7802C99.3364 70.9099 101.043 72.5453 99.5945 72.6186C99.5945 72.6186 100.216 73.7958 99.3858 74.5219C99.3858 74.5219 100.043 77.3698 99.0792 77.1379C98.1148 76.906 96.2228 73.1107 94.1863 73.4998C94.1863 73.4998 95.465 75.4538 94.8834 75.7887C94.3019 76.1235 91.6993 73.6175 91.3377 73.9841C90.9768 74.3513 93.0323 75.4066 93.0056 75.8352C92.9788 76.2638 89.3695 74.7693 89.1045 75.2804C88.8394 75.7915 89.796 77.5496 88.7316 77.5058C87.6672 77.4621 85.7505 76.3455 85.1132 76.4971C84.476 76.648 85.5785 77.6786 84.5683 77.9866C83.5582 78.2947 82.9287 78.6436 83.389 79.2921C83.8493 79.9399 83.5483 80.5053 82.72 80.5469C81.8917 80.5892 82.3612 83.337 80.9767 83.9686C79.5923 84.6009 76.7775 83.9869 75.7342 85.5659C74.691 87.145 65.8985 93.638 56.5124 93.1981" stroke="white" stroke-width="0.5" stroke-miterlimit="10" stroke-linecap="round" stroke-linejoin="round"/>
<path d="M63.4869 90.2474C68.8246 87.8789 72.6439 83.0424 77.5924 79.9421" stroke="white" stroke-width="0.5" stroke-miterlimit="10" stroke-linecap="round" stroke-linejoin="round"/>
<path d="M65.0328 91.925C68.3051 90.4651 70.5848 87.355 73.7795 85.7336" stroke="white" stroke-width="0.5" stroke-miterlimit="10" stroke-linecap="round" stroke-linejoin="round"/>
<path d="M75.7809 84.1378C76.8827 83.1495 78.5174 82.7943 79.9294 83.2369" stroke="white" stroke-width="0.5" stroke-miterlimit="10" stroke-linecap="round" stroke-linejoin="round"/>
<path d="M81.115 73.4689C83.0084 72.4982 85.3424 72.4355 87.2852 73.3032" stroke="white" stroke-width="0.5" stroke-miterlimit="10" stroke-linecap="round" stroke-linejoin="round"/>
<path d="M81.6084 75.4694C82.995 74.9034 84.555 74.7716 86.017 75.0965" stroke="white" stroke-width="0.5" stroke-miterlimit="10" stroke-linecap="round" stroke-linejoin="round"/>
<path d="M81.9728 82.4269C82.0418 82.1851 82.0531 81.9264 82.0052 81.6789C81.8381 80.8076 80.9964 80.2289 80.1604 79.9321" stroke="white" stroke-width="0.5" stroke-miterlimit="10" stroke-linecap="round" stroke-linejoin="round"/>
<path d="M94.6368 74.283C94.0975 73.1424 93.5491 72.7152 92.8555 72.1245" stroke="white" stroke-width="0.5" stroke-miterlimit="10" stroke-linecap="round" stroke-linejoin="round"/>
<path d="M99.4696 74.947C99.2969 73.9608 98.843 73.1396 98.1 72.4678" stroke="white" stroke-width="0.5" stroke-miterlimit="10" stroke-linecap="round" stroke-linejoin="round"/>
<path d="M99.7488 73.0381C99.5021 72.2289 99.0721 71.8165 98.4772 71.4401" stroke="white" stroke-width="0.5" stroke-miterlimit="10" stroke-linecap="round" stroke-linejoin="round"/>
<path d="M85.5031 76.5127C85.5031 76.5127 83.7006 76.2004 80.9796 77.1401" stroke="white" stroke-width="0.5" stroke-miterlimit="10" stroke-linecap="round" stroke-linejoin="round"/>
<path d="M91.0063 69.8532C91.4871 69.6819 92.0306 69.7608 92.4937 69.9737C92.9576 70.1866 93.3523 70.5236 93.7189 70.8781C93.8676 71.022 94.022 71.1749 94.2208 71.2334C94.4196 71.2912 94.6755 71.213 94.7368 71.0156C94.8461 70.6653 94.3174 70.4425 94.2307 70.0858C94.1461 69.7383 94.543 69.4331 94.9004 69.4457C95.2577 69.4584 95.5721 69.6699 95.8901 69.8334C96.3292 70.0597 96.8093 70.2057 97.2999 70.2628C97.5953 70.2966 97.9886 70.2247 98.0302 69.93C98.0528 69.7721 97.952 69.6227 97.8349 69.5141C97.5234 69.2237 97.0729 69.0975 96.8079 68.7641C96.6612 68.5801 96.5915 68.3002 96.7353 68.1149C96.8791 67.9288 97.2632 68.0098 97.2477 68.2446" stroke="white" stroke-width="0.5" stroke-miterlimit="10" stroke-linecap="round" stroke-linejoin="round"/>
<path d="M99.4717 76.9687C99.6177 75.1338 98.6822 73.461 97.252 72.3021" stroke="white" stroke-width="0.5" stroke-miterlimit="10" stroke-linecap="round" stroke-linejoin="round"/>
<path d="M81.0366 71.9348C81.9058 70.9768 83.458 70.3269 84.7501 70.3741C86.0423 70.4221 87.2865 70.8676 88.4743 71.3779" stroke="white" stroke-width="0.5" stroke-miterlimit="10" stroke-linecap="round" stroke-linejoin="round"/>
<path d="M85.1824 68.7669C86.5274 68.738 87.8195 69.0362 88.8346 69.918" stroke="white" stroke-width="0.5" stroke-miterlimit="10" stroke-linecap="round" stroke-linejoin="round"/>
<path d="M80.2205 84.1899C80.3502 84.1913 80.802 83.9693 80.8612 83.8537C80.9197 83.7381 80.9324 83.6055 80.9381 83.4765C80.9536 83.1495 80.9282 82.797 80.7273 82.5376C80.4933 82.2359 80.0887 82.1407 79.7214 82.0364C79.4211 81.9511 79.1264 81.8482 78.8388 81.7276C78.7408 81.6868 78.6379 81.6388 78.5808 81.5486C78.5103 81.4372 78.5315 81.2842 78.6069 81.1757C78.6816 81.0671 78.8007 80.9966 78.9234 80.948C79.3428 80.7823 79.8476 80.8528 80.2057 81.127C80.3135 81.2095 80.4136 81.311 80.5447 81.3456C80.6759 81.3801 80.8478 81.3054 80.8507 81.1693C80.8535 81.046 80.7252 80.9663 80.6145 80.9135" stroke="white" stroke-width="0.5" stroke-miterlimit="10" stroke-linecap="round" stroke-linejoin="round"/>
<path d="M96.7112 66.3865C96.7112 66.3865 103.368 68.0966 105.628 72.0216" stroke="white" stroke-width="0.5" stroke-miterlimit="10" stroke-linecap="round" stroke-linejoin="round"/>
<path d="M96.3927 74.4367C96.3927 74.4367 94.3957 75.7711 95.3797 78.5294C96.3645 81.2871 100.415 84.4585 107.133 80.272C113.851 76.0848 115.526 73.9383 118.082 74.4804" stroke="white" stroke-width="0.5" stroke-miterlimit="10" stroke-linecap="round" stroke-linejoin="round"/>
<path d="M94.5958 75.797C94.2384 76.9101 94.2102 78.5025 95.4135 80.5186" stroke="white" stroke-width="0.5" stroke-miterlimit="10" stroke-linecap="round" stroke-linejoin="round"/>
<path d="M95.7676 73.9382C95.7676 73.9382 95.3876 74.2512 95.0253 74.8525" stroke="white" stroke-width="0.5" stroke-miterlimit="10" stroke-linecap="round" stroke-linejoin="round"/>
<path d="M93.8649 75.4377C93.8649 75.4377 92.8039 76.9082 94.1193 79.4071" stroke="white" stroke-width="0.5" stroke-miterlimit="10" stroke-linecap="round" stroke-linejoin="round"/>
<path d="M92.4628 75.8647C92.4628 75.8647 92.049 77.1717 92.9344 79.4747C94.0334 82.3324 96.2835 83.3736 96.2835 83.3736" stroke="white" stroke-width="0.5" stroke-miterlimit="10" stroke-linecap="round" stroke-linejoin="round"/>
<path d="M97.5212 83.941C97.5212 83.941 103.62 86.7417 111.368 81.4808" stroke="white" stroke-width="0.5" stroke-miterlimit="10" stroke-linecap="round" stroke-linejoin="round"/>
<path d="M109.153 80.8889C109.153 80.8889 113.179 80.4645 117.574 75.2742C121.969 70.0838 125.668 67.9091 128.806 67.8577" stroke="white" stroke-width="0.5" stroke-miterlimit="10" stroke-linecap="round" stroke-linejoin="round"/>
<path d="M111.018 77.7292C112.908 76.4336 114.853 75.453 116.979 75.188" stroke="white" stroke-width="0.5" stroke-miterlimit="10" stroke-linecap="round" stroke-linejoin="round"/>
<path d="M116.967 75.9318C115.488 75.9966 113.933 76.7593 112.661 77.5143" stroke="white" stroke-width="0.5" stroke-miterlimit="10" stroke-linecap="round" stroke-linejoin="round"/>
<path d="M111.069 79.058C112.345 78.1021 113.89 77.5107 115.478 77.369" stroke="white" stroke-width="0.5" stroke-miterlimit="10" stroke-linecap="round" stroke-linejoin="round"/>
<path d="M99.0524 82.907C101.501 83.4308 104.124 83.0903 106.358 81.9596" stroke="white" stroke-width="0.5" stroke-miterlimit="10" stroke-linecap="round" stroke-linejoin="round"/>
<path d="M91.602 75.6956C91.0896 77.8808 91.6951 80.2987 93.1783 81.9842" stroke="white" stroke-width="0.5" stroke-miterlimit="10" stroke-linecap="round" stroke-linejoin="round"/>
<path d="M90.8035 75.4419C89.7665 77.7893 90.2699 80.7352 92.0272 82.6046" stroke="white" stroke-width="0.5" stroke-miterlimit="10" stroke-linecap="round" stroke-linejoin="round"/>
<path d="M89.7629 75.2177C89.481 76.0911 89.254 76.9905 89.2173 77.9076C89.1355 79.9435 90.0555 81.9955 91.6289 83.2897" stroke="white" stroke-width="0.5" stroke-miterlimit="10" stroke-linecap="round" stroke-linejoin="round"/>
<path d="M87.7674 77.295C87.7674 77.295 86.7784 80.2755 90.296 84.579C93.8135 88.8826 100.798 90.0831 106.97 87.0392C113.142 83.9953 122.008 76.1129 129.055 78.9622" stroke="white" stroke-width="0.5" stroke-miterlimit="10" stroke-linecap="round" stroke-linejoin="round"/>
<path d="M94.3928 83.0804C94.3928 83.0804 97.2478 86.1207 103.441 85.8416C109.635 85.5624 114.462 80.4694 114.462 80.4694" stroke="white" stroke-width="0.5" stroke-miterlimit="10" stroke-linecap="round" stroke-linejoin="round"/>
<path d="M95.1387 84.8237C95.1387 84.8237 101.884 88.3075 107.9 84.8357" stroke="white" stroke-width="0.5" stroke-miterlimit="10" stroke-linecap="round" stroke-linejoin="round"/>
<path d="M118.068 74.7369C118.317 74.431 118.603 74.1547 118.919 73.9164C119.248 73.6669 119.723 73.4624 120.051 73.7141C120.342 73.9376 120.388 74.4451 120.743 74.5346C120.877 74.5685 121.02 74.5262 121.143 74.4627C121.439 74.3083 121.664 74.02 121.74 73.6937C121.819 73.3511 121.743 72.9866 121.824 72.6447C121.862 72.4819 121.977 72.3021 122.144 72.312C122.228 72.3169 122.302 72.3719 122.361 72.434C122.589 72.6743 122.655 73.0197 122.777 73.3271C122.899 73.6351 123.143 73.9502 123.475 73.9474C123.721 73.9453 123.948 73.7338 123.967 73.4878C123.976 73.3602 123.938 73.2319 123.957 73.1057C123.977 72.9796 124.097 72.8513 124.217 72.895C124.259 72.9105 124.292 72.9436 124.321 72.9774C124.5 73.1826 124.62 73.4314 124.776 73.6549C124.933 73.8776 125.144 74.0842 125.411 74.1363C125.826 74.2167 126.26 73.8156 126.212 73.3955C126.193 73.2256 126.109 73.0663 126.096 72.8957C126.083 72.7251 126.184 72.5207 126.355 72.5178C126.554 72.515 126.649 72.7646 126.818 72.871C127.087 73.0416 127.443 72.7892 127.569 72.4967C127.695 72.2048 127.704 71.8658 127.869 71.5937C128.143 71.1411 128.856 71.0417 129.243 71.4027" stroke="white" stroke-width="0.5" stroke-miterlimit="10" stroke-linecap="round" stroke-linejoin="round"/>
<path d="M119.69 73.6006C119.998 73.7106 120.233 74.0609 120.182 74.3837C120.131 74.7066 119.933 74.9858 119.731 75.2431C118.798 76.4379 117.68 77.4734 116.568 78.5026" stroke="white" stroke-width="0.5" stroke-miterlimit="10" stroke-linecap="round" stroke-linejoin="round"/>
<path d="M120.743 74.5345C120.45 75.6356 119.986 76.6049 119.246 77.472C118.507 78.339 117.636 79.0834 116.751 79.8003" stroke="white" stroke-width="0.5" stroke-miterlimit="10" stroke-linecap="round" stroke-linejoin="round"/>
<path d="M121.418 74.3175C121.418 75.3481 121.09 76.3766 120.491 77.2161" stroke="white" stroke-width="0.5" stroke-miterlimit="10" stroke-linecap="round" stroke-linejoin="round"/>
<path d="M121.824 72.6448C121.953 73.2806 122.131 74.1251 122.15 74.7736C122.169 75.4222 122.072 76.0862 121.769 76.6607" stroke="white" stroke-width="0.5" stroke-miterlimit="10" stroke-linecap="round" stroke-linejoin="round"/>
<path d="M122.771 73.3475C123.147 74.1864 123.217 75.1578 122.968 76.0425" stroke="white" stroke-width="0.5" stroke-miterlimit="10" stroke-linecap="round" stroke-linejoin="round"/>
<path d="M124.052 73.0754C124.242 73.8741 124.31 74.701 124.254 75.5201" stroke="white" stroke-width="0.5" stroke-miterlimit="10" stroke-linecap="round" stroke-linejoin="round"/>
<path d="M125.143 74.0426C125.38 74.5156 125.49 75.0513 125.459 75.5793" stroke="white" stroke-width="0.5" stroke-miterlimit="10" stroke-linecap="round" stroke-linejoin="round"/>
<path d="M126.066 73.8818C126.299 74.4634 126.388 75.1028 126.322 75.7259" stroke="white" stroke-width="0.5" stroke-miterlimit="10" stroke-linecap="round" stroke-linejoin="round"/>
<path d="M126.417 72.5701C126.903 73.4125 127.215 74.3556 127.325 75.3214" stroke="white" stroke-width="0.5" stroke-miterlimit="10" stroke-linecap="round" stroke-linejoin="round"/>
<path d="M127.5 72.6024C127.762 73.3602 127.932 74.149 128.006 74.947" stroke="white" stroke-width="0.5" stroke-miterlimit="10" stroke-linecap="round" stroke-linejoin="round"/>
<path d="M87.2724 77.1145C86.6979 78.6139 86.7198 80.3043 87.1723 81.8452C87.6249 83.3855 88.4891 84.7834 89.5374 85.9993" stroke="white" stroke-width="0.5" stroke-miterlimit="10" stroke-linecap="round" stroke-linejoin="round"/>
<path d="M90.0145 86.543C90.4058 86.9152 90.8308 87.2521 91.2834 87.5482" stroke="white" stroke-width="0.5" stroke-miterlimit="10" stroke-linecap="round" stroke-linejoin="round"/>
<path d="M86.1607 76.8567C85.3416 79.6848 85.539 82.6568 87.0574 85.1797C87.641 86.1497 88.4094 86.9963 89.2243 87.7823C89.9779 88.5083 90.797 89.2013 91.7733 89.5784" stroke="white" stroke-width="0.5" stroke-miterlimit="10" stroke-linecap="round" stroke-linejoin="round"/>
<path d="M92.6884 90.0239C93.5695 90.2883 94.4979 90.3954 95.4164 90.339" stroke="white" stroke-width="0.5" stroke-miterlimit="10" stroke-linecap="round" stroke-linejoin="round"/>
<path d="M94.1024 85.5405C95.2853 86.3216 96.5837 86.9271 97.9421 87.331" stroke="white" stroke-width="0.5" stroke-miterlimit="10" stroke-linecap="round" stroke-linejoin="round"/>
<path d="M84.9244 77.6976C84.2604 81.3174 85.3918 85.222 87.8872 87.9261" stroke="white" stroke-width="0.5" stroke-miterlimit="10" stroke-linecap="round" stroke-linejoin="round"/>
<path d="M83.7465 78.3453C83.399 80.1986 83.7521 82.111 84.2392 83.9325C84.5459 85.0773 84.9089 86.2165 85.4785 87.2563C86.519 89.1546 88.2157 90.6392 90.1162 91.6754" stroke="white" stroke-width="0.5" stroke-miterlimit="10" stroke-linecap="round" stroke-linejoin="round"/>
<path d="M82.4938 80.5594C82.4811 80.9049 82.5051 81.251 82.541 81.595C82.8653 84.7312 84.2082 87.7539 86.3173 90.0978" stroke="white" stroke-width="0.5" stroke-miterlimit="10" stroke-linecap="round" stroke-linejoin="round"/>
<path d="M81.593 83.4216C81.6981 84.2873 81.8045 85.1579 82.0505 85.9946C82.4171 87.2409 83.0875 88.3836 83.9023 89.3951C86.6255 92.7752 91.0862 94.6736 95.4095 94.2929" stroke="white" stroke-width="0.5" stroke-miterlimit="10" stroke-linecap="round" stroke-linejoin="round"/>
<path d="M80.0449 84.1948C80.3614 87.1414 81.7734 89.9576 83.946 91.9729" stroke="white" stroke-width="0.5" stroke-miterlimit="10" stroke-linecap="round" stroke-linejoin="round"/>
<path d="M78.7895 84.3965C78.7655 86.1102 79.2935 87.8274 80.2755 89.2323" stroke="white" stroke-width="0.5" stroke-miterlimit="10" stroke-linecap="round" stroke-linejoin="round"/>
<path d="M77.6863 84.5432C77.3704 86.1011 77.5953 87.6223 78.1945 89.0942C78.7937 90.5661 79.7813 91.8667 80.979 92.9121" stroke="white" stroke-width="0.5" stroke-miterlimit="10" stroke-linecap="round" stroke-linejoin="round"/>
<path d="M87.9838 96.2808C87.9838 96.2808 96.4245 99.4713 106.622 94.0138" stroke="white" stroke-width="0.5" stroke-miterlimit="10" stroke-linecap="round" stroke-linejoin="round"/>
<path d="M76.6759 84.7913C76.4687 85.905 76.5462 86.4662 76.6562 87.4354C77.2251 92.4693 80.245 97.2698 84.7635 99.5608C87.7489 101.074 91.2093 101.463 94.5436 101.171C97.8779 100.879 101.12 99.9408 104.306 98.913" stroke="white" stroke-width="0.5" stroke-miterlimit="10" stroke-linecap="round" stroke-linejoin="round"/>
<path d="M107.403 97.4833C112.432 93.9777 118.547 92.2175 124.666 92.5827" stroke="white" stroke-width="0.5" stroke-miterlimit="10" stroke-linecap="round" stroke-linejoin="round"/>
<path d="M118.006 94.613C119.974 94.016 121.862 93.7713 123.919 93.8461" stroke="white" stroke-width="0.5" stroke-miterlimit="10" stroke-linecap="round" stroke-linejoin="round"/>
<path d="M115.139 96.7531C117.708 95.9473 120.359 95.3975 123.052 95.3326" stroke="white" stroke-width="0.5" stroke-miterlimit="10" stroke-linecap="round" stroke-linejoin="round"/>
<path d="M113.515 99.252C116.135 97.7491 119.093 96.8419 122.105 96.6163" stroke="white" stroke-width="0.5" stroke-miterlimit="10" stroke-linecap="round" stroke-linejoin="round"/>
<path d="M74.4547 86.8292C74.4547 86.8292 74.0268 91.6974 78.157 97.513C82.2871 103.329 91.7838 105.327 95.1005 103.849" stroke="white" stroke-width="0.5" stroke-miterlimit="10" stroke-linecap="round" stroke-linejoin="round"/>
<path d="M75.6144 85.6703C75.422 86.4852 75.5059 87.3396 75.6419 88.1657C76.1713 91.3795 77.486 94.4614 79.4408 97.0668" stroke="white" stroke-width="0.5" stroke-miterlimit="10" stroke-linecap="round" stroke-linejoin="round"/>
<path d="M73.4144 87.6632C73.6851 92.3594 75.6349 96.9414 78.8318 100.392" stroke="white" stroke-width="0.5" stroke-miterlimit="10" stroke-linecap="round" stroke-linejoin="round"/>
<path d="M71.7888 88.7578C71.9834 92.1175 73.2466 95.37 75.1421 98.1502C77.0384 100.93 79.55 103.256 82.3119 105.178" stroke="white" stroke-width="0.5" stroke-miterlimit="10" stroke-linecap="round" stroke-linejoin="round"/>
<path d="M70.5707 89.4359C70.4791 92.957 71.8481 96.3019 74.0629 99.0405" stroke="white" stroke-width="0.5" stroke-miterlimit="10" stroke-linecap="round" stroke-linejoin="round"/>
<path d="M68.1528 90.7831C68.1648 93.9714 69.5725 97.0294 71.5153 99.5573C73.4581 102.086 75.9211 104.158 78.3629 106.208" stroke="white" stroke-width="0.5" stroke-miterlimit="10" stroke-linecap="round" stroke-linejoin="round"/>
<path d="M64.8904 92.1825C65.4459 96.9062 67.9589 101.369 71.7098 104.294" stroke="white" stroke-width="0.5" stroke-miterlimit="10" stroke-linecap="round" stroke-linejoin="round"/>
<path d="M62.4366 92.5955C62.7955 96.0489 64.457 99.3507 67.0158 101.697" stroke="white" stroke-width="0.5" stroke-miterlimit="10" stroke-linecap="round" stroke-linejoin="round"/>
<path d="M60.4148 92.9604C60.6693 94.6875 60.9703 96.5203 62.1256 97.8286" stroke="white" stroke-width="0.5" stroke-miterlimit="10" stroke-linecap="round" stroke-linejoin="round"/>
<path d="M73.7732 109.356C73.7732 109.356 78.8761 104.548 86.6105 105.94C94.3449 107.333 105.553 110.116 117.336 102.345" stroke="white" stroke-width="0.5" stroke-miterlimit="10" stroke-linecap="round" stroke-linejoin="round"/>
<path d="M93.0734 107.067C93.0734 107.067 98.0699 103.573 105.183 101.792C112.295 100.01 116.236 101.054 119.873 99.6729" stroke="white" stroke-width="0.5" stroke-miterlimit="10" stroke-linecap="round" stroke-linejoin="round"/>
<path d="M75.0562 109.946C76.4448 109.048 77.8892 108.212 79.4542 107.678C83.124 106.425 87.1357 106.922 90.9669 107.519" stroke="white" stroke-width="0.5" stroke-miterlimit="10" stroke-linecap="round" stroke-linejoin="round"/>
<path d="M93.3636 107.965C98.2657 108.964 104.829 107.206 104.499 107.261" stroke="white" stroke-width="0.5" stroke-miterlimit="10" stroke-linecap="round" stroke-linejoin="round"/>
<path d="M93.9517 109.375C97.828 110.152 101.887 109.757 105.663 108.587C109.44 107.417 112.95 105.492 116.191 103.229" stroke="white" stroke-width="0.5" stroke-miterlimit="10" stroke-linecap="round" stroke-linejoin="round"/>
<path d="M92.7652 109.402C90.1887 108.794 87.5474 108.358 84.9032 108.487C82.2591 108.617 79.598 109.343 77.4473 110.886" stroke="white" stroke-width="0.5" stroke-miterlimit="10" stroke-linecap="round" stroke-linejoin="round"/>
<path d="M79.7721 111.642C82.5227 110.432 85.6117 110.219 88.6139 110.359C91.6155 110.498 94.5966 110.971 97.6003 111.062C100.604 111.152 103.892 110.966 106.582 109.626" stroke="white" stroke-width="0.5" stroke-miterlimit="10" stroke-linecap="round" stroke-linejoin="round"/>
<path d="M119.645 99.7266C118.411 101.093 116.446 101.513 114.609 101.624C112.772 101.736 110.88 101.623 109.141 102.223" stroke="white" stroke-width="0.5" stroke-miterlimit="10" stroke-linecap="round" stroke-linejoin="round"/>
<path d="M94.8539 107.184C99.0362 105.175 103.441 103.629 107.962 102.585" stroke="white" stroke-width="0.5" stroke-miterlimit="10" stroke-linecap="round" stroke-linejoin="round"/>
<path d="M96.624 107.348C99.7144 105.84 102.919 104.537 106.253 103.694C109.588 102.851 113.06 102.474 116.481 102.822" stroke="white" stroke-width="0.5" stroke-miterlimit="10" stroke-linecap="round" stroke-linejoin="round"/>
<path d="M99.5232 107.547C103.692 105.18 108.575 104.093 113.354 104.468" stroke="white" stroke-width="0.5" stroke-miterlimit="10" stroke-linecap="round" stroke-linejoin="round"/>
<path d="M106.833 89.1977C109.717 88.9397 112.333 87.4452 114.752 85.8542C117.172 84.2632 119.552 82.515 122.31 81.6338C124.354 80.9811 126.541 80.833 128.675 81.06" stroke="white" stroke-width="0.5" stroke-miterlimit="10" stroke-linecap="round" stroke-linejoin="round"/>
<path d="M106.494 91.347C109.878 90.9946 112.633 88.6133 115.491 86.7671C119.349 84.2752 123.801 82.4319 128.393 82.5221" stroke="white" stroke-width="0.5" stroke-miterlimit="10" stroke-linecap="round" stroke-linejoin="round"/>
<path d="M112.896 89.7307C117.223 86.1991 122.638 84.018 128.204 83.5634" stroke="white" stroke-width="0.5" stroke-miterlimit="10" stroke-linecap="round" stroke-linejoin="round"/>
<path d="M52.9363 78.2291C55.0017 77.8534 57.0925 78.7268 58.8809 79.8279C60.6686 80.929 62.3237 82.2859 64.2799 83.048C66.9177 84.075 69.7677 84.0151 72.2688 82.6899" stroke="white" stroke-width="0.5" stroke-miterlimit="10" stroke-linecap="round" stroke-linejoin="round"/>
<path d="M53.085 84.9236C53.0815 84.7672 53.2556 84.6226 53.4297 84.6917C53.792 84.9258 54.1762 85.1253 54.5759 85.2874C54.6676 85.3247 54.7677 85.36 54.8642 85.3374C55.025 85.2994 55.1074 85.1069 55.0842 84.9441C55.0602 84.7805 54.9601 84.641 54.8649 84.5056C54.351 83.7781 53.9034 83.0041 53.5298 82.1963C53.3881 81.8904 53.2542 81.5668 53.2655 81.2292C53.2768 80.8915 53.4713 80.5383 53.7963 80.446C54.0761 80.3663 54.38 80.4988 54.5907 80.6998C54.8015 80.8999 54.9418 81.1615 55.0969 81.4075C55.3767 81.8516 55.7158 82.2583 56.1021 82.6136C56.4644 82.947 57.0164 83.2417 57.4196 82.959C57.7699 82.7123 57.8207 82.1279 58.2267 81.9912C58.5594 81.8791 58.8844 82.1484 59.1777 82.3422C59.4709 82.5361 59.9559 82.6171 60.099 82.2964C60.2104 82.0476 60.0306 81.6845 60.247 81.5182C60.5262 81.3039 61.0845 81.7501 61.2212 81.4258" stroke="white" stroke-width="0.5" stroke-miterlimit="10" stroke-linecap="round" stroke-linejoin="round"/>
<path d="M53.4686 78.1791C54.7939 78.927 56.0374 79.8194 57.1695 80.8359" stroke="white" stroke-width="0.5" stroke-miterlimit="10" stroke-linecap="round" stroke-linejoin="round"/>
<path d="M55.692 78.3828C56.5929 79.001 57.737 79.732 58.5117 80.5025" stroke="white" stroke-width="0.5" stroke-miterlimit="10" stroke-linecap="round" stroke-linejoin="round"/>
<path d="M52.854 78.3328C53.5321 78.9411 54.2096 79.5495 54.8877 80.1585" stroke="white" stroke-width="0.5" stroke-miterlimit="10" stroke-linecap="round" stroke-linejoin="round"/>
<path d="M60.245 81.5176C60.245 81.5176 65.0899 86.1947 70.6377 84.3577" stroke="white" stroke-width="0.5" stroke-miterlimit="10" stroke-linecap="round" stroke-linejoin="round"/>
<path d="M59.8778 82.4841C59.8778 82.4841 63.9903 86.1948 69.1214 85.7564" stroke="white" stroke-width="0.5" stroke-miterlimit="10" stroke-linecap="round" stroke-linejoin="round"/>
<path d="M57.9448 82.2091C57.9448 82.2091 61.6781 86.6128 67.5466 87.1379" stroke="white" stroke-width="0.5" stroke-miterlimit="10" stroke-linecap="round" stroke-linejoin="round"/>
<path d="M57.4176 82.9591C57.4176 82.9591 61.2482 87.2711 66.5182 88.0148" stroke="white" stroke-width="0.5" stroke-miterlimit="10" stroke-linecap="round" stroke-linejoin="round"/>
<path d="M53.7957 80.4468C53.7957 80.4468 58.0555 87.6997 65.3338 88.9806" stroke="white" stroke-width="0.5" stroke-miterlimit="10" stroke-linecap="round" stroke-linejoin="round"/>
<path d="M53.2797 81.4457C53.2797 81.4457 57.9942 88.9608 64.2927 89.7504" stroke="white" stroke-width="0.5" stroke-miterlimit="10" stroke-linecap="round" stroke-linejoin="round"/>
<path d="M55.0841 84.9442C55.0841 84.9442 57.3666 88.1474 61.6808 89.7906" stroke="white" stroke-width="0.5" stroke-miterlimit="10" stroke-linecap="round" stroke-linejoin="round"/>
<path d="M54.5767 85.2875C54.5767 85.2875 55.3528 86.5937 57.3456 88.2228" stroke="white" stroke-width="0.5" stroke-miterlimit="10" stroke-linecap="round" stroke-linejoin="round"/>
<path d="M58.1705 88.8644C58.1705 88.8644 59.5508 89.957 62.4346 90.8748" stroke="white" stroke-width="0.5" stroke-miterlimit="10" stroke-linecap="round" stroke-linejoin="round"/>
<path d="M53.4298 84.6919C53.4298 84.6919 54.6155 87.7915 58.6068 90.2967" stroke="white" stroke-width="0.5" stroke-miterlimit="10" stroke-linecap="round" stroke-linejoin="round"/>
<path d="M53.4896 86.2709C53.4896 86.2709 55.5402 91.3097 59.4716 92.0548" stroke="white" stroke-width="0.5" stroke-miterlimit="10" stroke-linecap="round" stroke-linejoin="round"/>
<path d="M112.937 91.0862C115.52 90.7993 117.512 88.7846 119.731 87.4305C122.092 85.9889 124.879 85.2551 127.645 85.3453" stroke="white" stroke-width="0.5" stroke-miterlimit="10" stroke-linecap="round" stroke-linejoin="round"/>
<path d="M122.687 70.3757C122.948 70.3214 123.214 70.4349 123.448 70.5625C124.03 70.8804 124.553 71.3069 124.981 71.8131" stroke="white" stroke-width="0.5" stroke-miterlimit="10" stroke-linecap="round" stroke-linejoin="round"/>
<path d="M123.867 73.7211C124.02 73.0987 123.93 72.4192 123.62 71.858" stroke="white" stroke-width="0.5" stroke-miterlimit="10" stroke-linecap="round" stroke-linejoin="round"/>
<path d="M123.524 69.7074C124.495 70.1557 125.333 70.8896 125.905 71.7933" stroke="white" stroke-width="0.5" stroke-miterlimit="10" stroke-linecap="round" stroke-linejoin="round"/>
<path d="M124.254 69.3013C124.782 69.658 125.27 70.0732 125.705 70.5377" stroke="white" stroke-width="0.5" stroke-miterlimit="10" stroke-linecap="round" stroke-linejoin="round"/>
<path d="M124.927 69.0962C125.228 69.3013 125.509 69.5332 125.767 69.7884" stroke="white" stroke-width="0.5" stroke-miterlimit="10" stroke-linecap="round" stroke-linejoin="round"/>
<path d="M125.543 68.7401C126.121 69.0432 126.575 69.5761 126.781 70.1951" stroke="white" stroke-width="0.5" stroke-miterlimit="10" stroke-linecap="round" stroke-linejoin="round"/>
<path d="M126.143 68.4637C126.656 68.7746 127.051 69.2765 127.232 69.8489" stroke="white" stroke-width="0.5" stroke-miterlimit="10" stroke-linecap="round" stroke-linejoin="round"/>
<path d="M127.633 70.8621C127.786 70.8621 127.91 70.738 127.91 70.585C127.91 70.432 127.786 70.308 127.633 70.308C127.48 70.308 127.356 70.432 127.356 70.585C127.356 70.738 127.48 70.8621 127.633 70.8621Z" stroke="white" stroke-width="0.5" stroke-miterlimit="10" stroke-linecap="round" stroke-linejoin="round"/>
<path d="M84.8093 92.6881C84.839 92.6881 84.863 92.7121 84.863 92.7418C84.863 92.7715 84.8391 92.7955 84.8093 92.7955C84.7797 92.7955 84.7556 92.7715 84.7556 92.7418C84.7557 92.7122 84.7797 92.6882 84.8093 92.6881Z" stroke="white" stroke-width="0.5"/>
<path d="M81.6385 93.6547C81.6682 93.6547 81.6922 93.6787 81.6923 93.7084C81.6923 93.7381 81.6683 93.7621 81.6385 93.7621C81.6089 93.762 81.5848 93.7381 81.5848 93.7084C81.5849 93.6787 81.6089 93.6547 81.6385 93.6547Z" stroke="white" stroke-width="0.5"/>
<path d="M96.4398 94.1777C96.4695 94.1777 96.4935 94.2018 96.4935 94.2314C96.4935 94.2612 96.4695 94.2852 96.4398 94.2852C96.4101 94.2851 96.3861 94.2611 96.3861 94.2314C96.3862 94.2018 96.4102 94.1778 96.4398 94.1777Z" stroke="white" stroke-width="0.5"/>
<path d="M105.277 91.3164C105.307 91.3164 105.331 91.3404 105.331 91.3701C105.331 91.3998 105.307 91.4238 105.277 91.4238C105.248 91.4238 105.224 91.3998 105.224 91.3701C105.224 91.3405 105.248 91.3165 105.277 91.3164Z" stroke="white" stroke-width="0.5"/>
<path d="M117.071 94.891C117.101 94.891 117.125 94.915 117.125 94.9447C117.125 94.9744 117.101 94.9984 117.071 94.9984C117.042 94.9984 117.018 94.9744 117.018 94.9447C117.018 94.9151 117.042 94.8911 117.071 94.891Z" stroke="white" stroke-width="0.5"/>
<path d="M111.982 91.5709C112.012 91.5709 112.036 91.595 112.036 91.6246C112.036 91.6544 112.012 91.6783 111.982 91.6783C111.952 91.6783 111.928 91.6543 111.928 91.6246C111.928 91.595 111.952 91.571 111.982 91.5709Z" stroke="white" stroke-width="0.5"/>
<path d="M105.203 98.2853C105.233 98.2853 105.257 98.3093 105.257 98.339C105.257 98.3687 105.233 98.3927 105.203 98.3927C105.174 98.3926 105.15 98.3687 105.15 98.339C105.15 98.3094 105.174 98.2853 105.203 98.2853Z" stroke="white" stroke-width="0.5"/>
<path d="M92.0291 87.8186C92.0587 87.8186 92.0827 87.8426 92.0828 87.8723C92.0828 87.902 92.0588 87.926 92.0291 87.926C91.9994 87.926 91.9753 87.902 91.9753 87.8723C91.9754 87.8427 91.9994 87.8187 92.0291 87.8186Z" stroke="white" stroke-width="0.5"/>
<path d="M95.8639 81.1937C95.8936 81.1937 95.9175 81.2178 95.9176 81.2474C95.9176 81.2772 95.8936 81.3011 95.8639 81.3011C95.8342 81.3011 95.8102 81.2771 95.8102 81.2474C95.8102 81.2178 95.8343 81.1938 95.8639 81.1937Z" stroke="white" stroke-width="0.5"/>
<path d="M93.2634 84.9778C93.2931 84.9778 93.3171 85.0018 93.3171 85.0315C93.3171 85.0612 93.2932 85.0852 93.2634 85.0852C93.2338 85.0851 93.2097 85.0612 93.2097 85.0315C93.2098 85.0019 93.2338 84.9778 93.2634 84.9778Z" stroke="white" stroke-width="0.5"/>
<path d="M120.069 77.8918C120.099 77.8918 120.122 77.9159 120.123 77.9456C120.123 77.9753 120.099 77.9993 120.069 77.9993C120.039 77.9992 120.015 77.9752 120.015 77.9456C120.015 77.9159 120.039 77.8919 120.069 77.8918Z" stroke="white" stroke-width="0.5"/>
<path d="M126.142 76.5477C126.157 76.5479 126.168 76.5603 126.168 76.5751C126.168 76.5898 126.157 76.6013 126.142 76.6014C126.127 76.6014 126.115 76.5899 126.115 76.5751C126.115 76.5602 126.127 76.5477 126.142 76.5477Z" stroke="white" stroke-width="0.5"/>
<path d="M128.036 75.9709C128.051 75.9711 128.063 75.9834 128.063 75.9983C128.062 76.013 128.051 76.0245 128.036 76.0247C128.021 76.0247 128.009 76.0131 128.009 75.9983C128.009 75.9834 128.021 75.9709 128.036 75.9709Z" stroke="white" stroke-width="0.5"/>
<path d="M122.9 76.7429C122.915 76.7431 122.927 76.7554 122.927 76.7703C122.926 76.7849 122.915 76.7965 122.9 76.7966C122.885 76.7966 122.873 76.785 122.873 76.7703C122.873 76.7553 122.885 76.7429 122.9 76.7429Z" stroke="white" stroke-width="0.5"/>
<path d="M93.6681 82.7002C93.6978 82.7002 93.7217 82.7242 93.7218 82.7539C93.7218 82.7836 93.6978 82.8076 93.6681 82.8076C93.6384 82.8076 93.6144 82.7836 93.6144 82.7539C93.6144 82.7243 93.6385 82.7003 93.6681 82.7002Z" stroke="white" stroke-width="0.5"/>
<path d="M115.908 79.0161C115.937 79.0161 115.961 79.0402 115.961 79.0698C115.961 79.0995 115.937 79.1235 115.908 79.1235C115.878 79.1235 115.854 79.0995 115.854 79.0698C115.854 79.0402 115.878 79.0162 115.908 79.0161Z" stroke="white" stroke-width="0.5"/>
<path d="M108.219 81.1846C108.249 81.1846 108.273 81.2086 108.273 81.2383C108.273 81.268 108.249 81.292 108.219 81.292C108.189 81.2919 108.165 81.268 108.165 81.2383C108.165 81.2086 108.189 81.1846 108.219 81.1846Z" stroke="white" stroke-width="0.5"/>
</svg>
