<svg width="16" height="16" viewBox="0 0 16 16" fill="none" xmlns="http://www.w3.org/2000/svg">
<path d="M12 1.33334H4C2.89333 1.33334 2 2.22001 2 3.31334V10.5867C2 11.68 2.89333 12.5667 4 12.5667H4.50667C5.04 12.5667 5.54667 12.7733 5.92 13.1467L7.06 14.2733C7.58 14.7867 8.42667 14.7867 8.94667 14.2733L10.0867 13.1467C10.46 12.7733 10.9733 12.5667 11.5 12.5667H12C13.1067 12.5667 14 11.68 14 10.5867V3.31334C14 2.22001 13.1067 1.33334 12 1.33334ZM8.18667 9.97334C8.08667 10.0067 7.92 10.0067 7.81333 9.97334C6.94667 9.67334 5 8.44001 5 6.34001C5.00667 5.41334 5.74667 4.66668 6.66667 4.66668C7.21333 4.66668 7.69333 4.92668 8 5.33334C8.30667 4.92668 8.78667 4.66668 9.33333 4.66668C10.2533 4.66668 11 5.41334 11 6.34001C10.9933 8.44001 9.05333 9.67334 8.18667 9.97334Z" fill="white"/>
</svg>
