<svg width="110" height="111" viewBox="0 0 110 111" fill="none" xmlns="http://www.w3.org/2000/svg">
<path d="M51.2446 110.477C50.8557 110.62 50.4249 110.42 50.2823 110.031L47.9583 103.694C47.8157 103.305 48.0154 102.874 48.4042 102.731C48.7931 102.589 49.224 102.788 49.3666 103.177L51.4323 108.81L57.0655 106.745C57.4544 106.602 57.8853 106.802 58.0279 107.191C58.1705 107.579 57.9709 108.01 57.582 108.153L51.2446 110.477ZM50.9864 109.773L50.3059 109.457C58.3366 92.1264 56.5955 69.7785 47.4395 50.2119C38.2875 30.654 21.785 14.0018 0.464247 7.996L0.667602 7.27409L0.870956 6.55219C22.6998 12.7012 39.5042 29.715 48.7981 49.5761C58.0878 69.4284 59.9314 92.2525 51.6669 110.088L50.9864 109.773Z" fill="#800020"/>
</svg>
