<svg width="110" height="111" viewBox="0 0 110 111" fill="none" xmlns="http://www.w3.org/2000/svg">
<path d="M55.7554 110.477C56.1443 110.62 56.5751 110.42 56.7177 110.031L59.0417 103.694C59.1843 103.305 58.9846 102.874 58.5958 102.731C58.2069 102.589 57.776 102.788 57.6334 103.177L55.5677 108.81L49.9345 106.745C49.5456 106.602 49.1147 106.802 48.9721 107.191C48.8295 107.579 49.0291 108.01 49.418 108.153L55.7554 110.477ZM56.0136 109.773L56.6941 109.457C48.6634 92.1264 50.4045 69.7785 59.5605 50.2119C68.7125 30.654 85.215 14.0018 106.536 7.996L106.332 7.27409L106.129 6.55219C84.3002 12.7012 67.4958 29.715 58.2019 49.5761C48.9122 69.4284 47.0686 92.2525 55.3331 110.088L56.0136 109.773Z" fill="#800020"/>
</svg>
