<svg width="310" height="7" viewBox="0 0 310 7" fill="none" xmlns="http://www.w3.org/2000/svg">
<path d="M154.5 5C155.328 5 156 4.32843 156 3.50001C156 2.6716 155.328 2 154.5 2C153.672 2 153 2.6716 153 3.50001C153 4.32843 153.672 5 154.5 5Z" fill="white"/>
<circle cx="154.5" cy="3.5" r="2.96918" stroke="white" stroke-width="1.06164"/>
<path d="M14.9819 3.33137C14.3071 3.33137 13.6322 3.13326 13.092 2.71883C12.6961 2.41299 12.3364 1.99856 12.1563 1.43166C11.6978 2.17896 11.0048 2.65591 10.3026 2.95333C9.22307 2.46709 7.92723 1.57572 7.41438 0C6.35291 1.74637 4.4992 2.62002 2.91517 3.06148C1.32231 3.49364 0 3.49363 0 3.49363C0 3.49363 1.32231 3.49363 2.91517 3.93466C4.4992 4.36682 6.35291 5.24044 7.41438 6.99611C7.92768 5.42039 9.22307 4.52905 10.3026 4.03351C11.0048 4.33979 11.6978 4.81715 12.1563 5.56445C12.2914 5.1416 12.5253 4.79895 12.7954 4.52902C13.3802 3.9528 14.1808 3.66472 15 3.66472L14.9819 3.33137Z" fill="white"/>
<path d="M12 3V3.50019V4H152V3.50019V3H12Z" fill="white"/>
<path d="M307.085 3.06148C305.501 2.62002 303.647 1.74637 302.586 0C302.073 1.57572 300.777 2.46709 299.698 2.95333C298.995 2.65591 298.302 2.17896 297.844 1.43166C297.664 1.99856 297.304 2.41299 296.908 2.71883C296.368 3.13326 295.693 3.33137 295.018 3.33137L295 3.66472C295.819 3.66472 296.62 3.9528 297.205 4.52902C297.474 4.79895 297.709 5.1416 297.843 5.56445C298.302 4.81715 298.995 4.33979 299.697 4.03351C300.777 4.52905 302.072 5.41995 302.585 6.99611C303.647 5.24044 305.501 4.36682 307.085 3.93466C308.678 3.49363 310 3.49363 310 3.49363C310 3.49363 308.678 3.49364 307.085 3.06148Z" fill="white"/>
<path d="M297 3H157V4H297V3Z" fill="white"/>
</svg>
