<svg width="20" height="20" viewBox="0 0 20 20" fill="none" xmlns="http://www.w3.org/2000/svg">
<path d="M16.25 6.24994L15.0083 7.49161L12.5083 4.99161L13.75 3.74994C14.1 3.39994 14.55 3.23328 15 3.23328C15.45 3.23328 15.9 3.39994 16.25 3.74994C16.9416 4.44161 16.9416 5.55828 16.25 6.24994Z" fill="#222428"/>
<path d="M14.425 8.08337L5.4167 17.0834C4.72503 17.775 3.60837 17.775 2.9167 17.0834C2.22503 16.3917 2.22503 15.275 2.9167 14.5834L11.925 5.58337L14.425 8.08337Z" fill="#222428"/>
<path d="M8.29164 2.91668L8.63331 1.75835C8.66664 1.65001 8.63331 1.53335 8.55831 1.45001C8.48331 1.36668 8.34997 1.33335 8.24164 1.36668L7.08331 1.70835L5.92497 1.36668C5.81664 1.33335 5.69997 1.36668 5.61664 1.44168C5.53331 1.52501 5.50831 1.64168 5.54164 1.75001L5.87497 2.91668L5.53331 4.07501C5.49997 4.18335 5.53331 4.30001 5.60831 4.38335C5.69164 4.46668 5.80831 4.49168 5.91664 4.45835L7.08331 4.12501L8.24164 4.46668C8.27497 4.47501 8.29997 4.48335 8.33331 4.48335C8.41664 4.48335 8.49164 4.45001 8.55831 4.39168C8.64164 4.30835 8.66664 4.19168 8.63331 4.08335L8.29164 2.91668Z" fill="#222428"/>
<path d="M4.95839 7.91668L5.30005 6.75835C5.33339 6.65001 5.30005 6.53335 5.22505 6.45001C5.14172 6.36668 5.02505 6.34168 4.91672 6.37501L3.75005 6.70835L2.59172 6.36668C2.48339 6.33335 2.36672 6.36668 2.28339 6.44168C2.20005 6.52501 2.17505 6.64168 2.20839 6.75001L2.54172 7.91668L2.20005 9.07501C2.16672 9.18335 2.20005 9.30001 2.27505 9.38335C2.35839 9.46668 2.47505 9.49168 2.58339 9.45835L3.74172 9.11668L4.90005 9.45835C4.92505 9.46668 4.95839 9.46668 4.99172 9.46668C5.07505 9.46668 5.15005 9.43335 5.21672 9.37501C5.30006 9.29168 5.32505 9.17501 5.29172 9.06668L4.95839 7.91668Z" fill="#222428"/>
<path d="M17.4583 12.0833L17.8 10.925C17.8333 10.8166 17.8 10.7 17.725 10.6166C17.6417 10.5333 17.525 10.5083 17.4167 10.5416L16.2583 10.8833L15.1 10.5416C14.9917 10.5083 14.875 10.5416 14.7917 10.6166C14.7083 10.7 14.6833 10.8166 14.7167 10.925L15.0583 12.0833L14.7167 13.2416C14.6833 13.35 14.7167 13.4666 14.7917 13.55C14.875 13.6333 14.9917 13.6583 15.1 13.625L16.2583 13.2833L17.4167 13.625C17.4417 13.6333 17.475 13.6333 17.5083 13.6333C17.5917 13.6333 17.6667 13.6 17.7333 13.5416C17.8167 13.4583 17.8417 13.3416 17.8083 13.2333L17.4583 12.0833Z" fill="#222428"/>
</svg>
