<svg width="19" height="18" viewBox="0 0 19 18" fill="none" xmlns="http://www.w3.org/2000/svg">
<path d="M0.757113 12.1758C1.00908 4.96024 4.62482 2.38942 8.88329 0.515314L9.49916 1.98168C7.17788 2.9602 4.74127 4.51262 3.50503 7.16654C3.19262 7.92622 2.9821 8.49682 2.68312 8.87167L3.14894 9.17691C3.54982 8.61296 4.23624 8.05899 5.09286 8.0889C7.85308 8.18529 9.32557 9.68158 9.22814 12.4716C9.13071 15.2616 7.55407 16.7477 4.79385 16.6513C2.22399 16.5616 0.666403 14.7734 0.757113 12.1758Z" fill="#222428"/>
<path d="M9.97049 12.4975C10.2225 5.28198 13.8382 2.71116 18.0967 0.837054L18.7125 2.30342C16.3913 3.28194 13.9546 4.83436 12.7184 7.48828C12.406 8.24796 12.1955 8.81856 11.8965 9.19341L12.3623 9.49865C12.7632 8.9347 13.4496 8.38073 14.3062 8.41064C17.0665 8.50703 18.5389 10.0033 18.4415 12.7933C18.3441 15.5833 16.7675 17.0695 14.0072 16.9731C11.4374 16.8833 9.87978 15.0951 9.97049 12.4975Z" fill="#222428"/>
</svg>
