<svg width="58" height="68" viewBox="0 0 58 68" fill="none" xmlns="http://www.w3.org/2000/svg">
<path d="M11.6363 14.3555C11.0481 12.8136 10.9794 11.1029 11.4469 9.64701C12.9441 10.7491 14.1997 12.2771 15.0289 14.0074C16.8983 12.7373 16.5185 9.6046 15.947 7.08862C17.1067 8.63377 18.4973 9.9834 20.0328 11.0563C19.9506 9.22956 19.868 7.40208 19.7854 5.5746C21.1291 6.61301 22.4736 7.65103 23.8173 8.68944C23.7372 6.88328 23.6563 5.07753 23.5761 3.27137C24.936 4.30453 26.2955 5.33693 27.6546 6.37048C27.2947 4.71193 26.9352 3.05221 26.5753 1.39365C32.6594 10.8569 37.4742 21.0977 42.2632 31.2927C46.1194 39.5023 49.9764 47.7116 53.8326 55.9213C52.5183 55.145 51.2047 54.3683 49.8904 53.592C49.2299 54.8499 48.5698 56.1067 47.9094 57.3646C47.9859 56.0488 46.1165 55.257 45.153 55.9593C44.1894 56.6615 43.9599 58.0852 43.7993 59.3806C42.8695 58.3448 41.6275 57.6468 40.3678 57.4538C40.2299 58.6985 39.8513 59.8814 39.2624 60.9066C38.4848 60.1728 37.7059 59.4387 36.9282 58.7049C36.7371 60.1219 36.5456 61.5382 36.3545 62.9552C35.1989 62.2911 34.0436 61.6277 32.8872 60.964C32.3705 61.9781 32.2064 63.2282 32.428 64.449C29.6699 56.9768 25.9927 49.8513 22.3292 42.7552C17.103 32.6314 11.8773 22.5084 6.65111 12.3846C8.31351 13.0416 9.9747 13.6982 11.6363 14.3555Z" fill="#1B1B1D" fill-opacity="0.5"/>
</svg>
