<svg width="16" height="16" viewBox="0 0 16 16" fill="none" xmlns="http://www.w3.org/2000/svg">
<path d="M8 11.5666C8.60015 11.5666 9.08666 11.0801 9.08666 10.48C9.08666 9.87983 8.60015 9.39331 8 9.39331C7.39985 9.39331 6.91333 9.87983 6.91333 10.48C6.91333 11.0801 7.39985 11.5666 8 11.5666Z" fill="white"/>
<path d="M11.1 6.29325H4.90004C4.84671 6.29325 4.80004 6.29325 4.74671 6.29325V5.51992C4.74671 3.56658 5.30004 2.26659 8.00004 2.26659C10.8867 2.26659 11.2534 3.67325 11.2534 4.89992C11.2534 5.15992 11.46 5.36659 11.72 5.36659C11.98 5.36659 12.1867 5.15992 12.1867 4.89992C12.1867 2.53325 10.78 1.33325 8.00004 1.33325C4.24671 1.33325 3.81337 3.71992 3.81337 5.51992V6.35325C1.94671 6.58658 1.33337 7.53325 1.33337 9.85992V11.0999C1.33337 13.8333 2.16671 14.6666 4.90004 14.6666H11.1C13.8334 14.6666 14.6667 13.8333 14.6667 11.0999V9.85992C14.6667 7.12659 13.8334 6.29325 11.1 6.29325ZM8.00004 12.4933C6.88671 12.4933 5.98671 11.5866 5.98671 10.4799C5.98671 9.36658 6.89337 8.46658 8.00004 8.46658C9.10671 8.46658 10.0134 9.37325 10.0134 10.4799C10.0134 11.5933 9.11337 12.4933 8.00004 12.4933Z" fill="white"/>
</svg>
