<svg width="20" height="20" viewBox="0 0 20 20" fill="none" xmlns="http://www.w3.org/2000/svg">
<circle cx="10" cy="10" r="5" fill="#F2F2F2"/>
<path fill-rule="evenodd" clip-rule="evenodd" d="M9.99046 3.61762L12.5756 2.5L13.993 4.91157L16.7423 5.52734L16.471 8.3119L18.3333 10.4251L16.4778 12.5193L16.7491 15.3242L14.0093 15.9277L12.5756 18.3515L10.0095 17.2325L7.42428 18.3515L6.0069 15.9386L3.25761 15.3242L3.52888 12.5382L1.66663 10.4251L3.52209 8.33225L3.25761 5.52734L5.99063 4.92377L7.42428 2.5L9.99046 3.61762ZM6.74475 11.2552C5.92145 10.3695 7.18556 9.04975 8.10109 9.88525C8.4239 10.1796 8.89319 10.6095 9.21871 10.9011L11.7279 7.81413C12.6014 6.91216 13.9808 8.2373 13.1182 9.14605L9.96741 12.9058C9.79495 13.0883 9.55827 13.1966 9.30742 13.2077C9.05658 13.2189 8.81123 13.132 8.62328 12.9655C8.08888 12.4569 7.30492 11.7231 6.74475 11.2552Z" fill="#800020"/>
</svg>
