<svg width="16" height="16" viewBox="0 0 16 16" fill="none" xmlns="http://www.w3.org/2000/svg">
<path d="M9.82005 1.33325H6.18005V4.23992H9.82005V1.33325Z" fill="white"/>
<path d="M10.8199 1.33325V4.23992H14.5799C14.2399 2.40659 12.8866 1.33992 10.8199 1.33325Z" fill="white"/>
<path d="M1.33337 5.23999V10.7933C1.33337 13.22 2.78004 14.6667 5.20671 14.6667H10.7934C13.22 14.6667 14.6667 13.22 14.6667 10.7933V5.23999H1.33337ZM9.62671 10.7867L8.24004 11.5867C7.94671 11.7533 7.66004 11.84 7.39337 11.84C7.19337 11.84 7.01337 11.7933 6.84671 11.7C6.46004 11.48 6.24671 11.0267 6.24671 10.44V8.83999C6.24671 8.25332 6.46004 7.79999 6.84671 7.57999C7.23337 7.35332 7.72671 7.39332 8.24004 7.69332L9.62671 8.49332C10.14 8.78666 10.42 9.19999 10.42 9.64666C10.42 10.0933 10.1334 10.4867 9.62671 10.7867Z" fill="white"/>
<path d="M5.18004 1.33325C3.11338 1.33992 1.76004 2.40659 1.42004 4.23992H5.18004V1.33325Z" fill="white"/>
</svg>
